# xmcd
# 
# Track frame offsets:
#     187
#     23257
#     49332
#     80417
#     110870
#     123460
#     137920
#     150825
#     163670
#     206992
# 
# Disc length: 3150
# 
# Revision: 0
# Processed by: cddbd v1.5.2PL0 Copyright (c) Steve Scherf et al.
# Submitted via: fre:ac v1.0.17
# 
DISCID=830c4c0a
DTITLE=Out of Bounds - So Many Women
DYEAR=1994
DGENRE=Blues
TTITLE0=Outa Sight Outa Mind
TTITLE1=Rock On Rita
TTITLE2=So many Women
TTITLE3=Don't Ask Me
TTITLE4=Ruby Ruby
TTITLE5=Funky Munky
TTITLE6=Witchy Woman
TTITLE7=Syracuse Song
TTITLE8=Birthday Blues
TTITLE9=Traffic Jam
EXTD=Features Rich Walikis on Guitar and Ron Iaboni on Sax
EXTT0=
EXTT1=
EXTT2=
EXTT3=
EXTT4=
EXTT5=
EXTT6=
EXTT7=
EXTT8=
EXTT9=
PLAYORDER=
